<svg width="512" height="512" viewBox="0 0 512 512" fill="none" xmlns="http://www.w3.org/2000/svg">
  <!-- Grownest Style - Simplified Version -->
  <defs>
    <linearGradient id="grownestMint2" x1="0%" y1="0%" x2="100%" y2="100%">
      <stop offset="0%" style="stop-color:#5eead4;stop-opacity:1" />
      <stop offset="100%" style="stop-color:#2dd4bf;stop-opacity:1" />
    </linearGradient>
  </defs>
  
  <circle cx="256" cy="256" r="256" fill="url(#grownestMint2)"/>
  
  <g transform="translate(256, 256)">
    <!-- Decorative dots on top -->
    <circle cx="-110" cy="-80" r="10" fill="white"/>
    <circle cx="-35" cy="-90" r="12" fill="white"/>
    <circle cx="35" cy="-90" r="12" fill="white"/>
    <circle cx="110" cy="-80" r="10" fill="white"/>
    
    <!-- Three arches bridge -->
    <!-- Left arch -->
    <path d="M -150 -50 L -150 20 L -90 20 L -90 -10 Q -90 -20 -100 -20 L -120 -20 Q -130 -20 -130 -10 L -130 20 L -150 20" 
          fill="white" stroke="white" stroke-width="2"/>
    <path d="M -150 -50 Q -150 -60 -140 -60 L -100 -60 Q -90 -60 -90 -50" 
          fill="white"/>
    
    <!-- Center arch (larger) -->
    <path d="M -70 -60 L -70 20 L -20 20 L -20 -20 Q -20 -30 -30 -30 L -40 -30 Q -50 -30 -50 -20 L -50 20 L -70 20" 
          fill="white" stroke="white" stroke-width="2"/>
    <path d="M 20 -60 L 20 20 L 70 20 L 70 -20 Q 70 -30 60 -30 L 50 -30 Q 40 -30 40 -20 L 40 20 L 20 20" 
          fill="white" stroke="white" stroke-width="2"/>
    <path d="M -70 -60 Q -70 -75 -50 -75 L -40 -75 Q -20 -75 -20 -60" 
          fill="white"/>
    <path d="M 20 -60 Q 20 -75 40 -75 L 50 -75 Q 70 -75 70 -60" 
          fill="white"/>
    
    <!-- Right arch -->
    <path d="M 90 -50 L 90 20 L 150 20 L 150 -10 Q 150 -20 140 -20 L 120 -20 Q 110 -20 110 -10 L 110 20 L 90 20" 
          fill="white" stroke="white" stroke-width="2"/>
    <path d="M 90 -50 Q 90 -60 100 -60 L 140 -60 Q 150 -60 150 -50" 
          fill="white"/>
    
    <!-- Bridge deck -->
    <rect x="-150" y="15" width="300" height="20" rx="4" fill="white"/>
  </g>
</svg>
