<svg width="512" height="512" viewBox="0 0 512 512" fill="none" xmlns="http://www.w3.org/2000/svg">
  <!-- Premium Option A: Elegant Intertwined LB -->
  <defs>
    <linearGradient id="premiumMintA" x1="0%" y1="0%" x2="100%" y2="100%">
      <stop offset="0%" style="stop-color:#6ee7b7;stop-opacity:1" />
      <stop offset="50%" style="stop-color:#34d399;stop-opacity:1" />
      <stop offset="100%" style="stop-color:#10b981;stop-opacity:1" />
    </linearGradient>
    <filter id="softGlow">
      <feGaussianBlur stdDeviation="4" result="coloredBlur"/>
      <feMerge>
        <feMergeNode in="coloredBlur"/>
        <feMergeNode in="SourceGraphic"/>
      </feMerge>
    </filter>
  </defs>
  
  <circle cx="256" cy="256" r="256" fill="url(#premiumMintA)"/>
  
  <!-- Elegant intertwined LB with flowing curves -->
  <g filter="url(#softGlow)">
    <!-- L with elegant serif-like terminals -->
    <path d="M 140 160 L 140 360 Q 140 370 150 370 L 240 370 Q 250 370 250 360 L 250 340 Q 250 330 240 330 L 180 330 Q 170 330 170 320 L 170 160 Q 170 150 160 150 L 150 150 Q 140 150 140 160 Z" 
          fill="white" opacity="0.95"/>
    
    <!-- Flowing connection curve -->
    <path d="M 240 265 Q 256 245 272 265" 
          stroke="white" stroke-width="18" fill="none" stroke-linecap="round" opacity="0.9"/>
    
    <!-- B with refined curves -->
    <path d="M 272 160 Q 272 150 282 150 L 292 150 Q 302 150 302 160 L 302 360 Q 302 370 312 370 L 350 370 Q 380 370 395 355 Q 410 340 410 310 L 410 285 Q 410 265 400 255 Q 395 250 385 248 Q 395 246 400 241 Q 410 231 410 211 L 410 200 Q 410 170 395 165 Q 380 160 350 160 L 312 160 Q 302 160 302 170 L 302 160 Q 302 150 292 150 L 282 150 Q 272 150 272 160 Z M 332 200 L 350 200 Q 365 200 372 207 Q 380 215 380 225 L 380 235 Q 380 245 372 252 Q 365 260 350 260 L 332 260 Z M 332 290 L 350 290 Q 365 290 372 297 Q 380 305 380 315 L 380 325 Q 380 335 372 342 Q 365 350 350 350 L 332 350 Z" 
          fill="white" opacity="0.95"/>
  </g>
</svg>
