<svg width="512" height="512" viewBox="0 0 512 512" fill="none" xmlns="http://www.w3.org/2000/svg">
  <!-- Premium Option D: Sleek Tech Style -->
  <defs>
    <linearGradient id="premiumMintD" x1="0%" y1="0%" x2="100%" y2="100%">
      <stop offset="0%" style="stop-color:#6ee7b7;stop-opacity:1" />
      <stop offset="50%" style="stop-color:#34d399;stop-opacity:1" />
      <stop offset="100%" style="stop-color:#059669;stop-opacity:1" />
    </linearGradient>
    <filter id="techGlow">
      <feGaussianBlur stdDeviation="6" result="coloredBlur"/>
      <feMerge>
        <feMergeNode in="coloredBlur"/>
        <feMergeNode in="SourceGraphic"/>
      </feMerge>
    </filter>
  </defs>
  
  <circle cx="256" cy="256" r="256" fill="url(#premiumMintD)"/>
  
  <!-- Sleek geometric LB -->
  <g filter="url(#techGlow)">
    <!-- L with modern cut -->
    <path d="M 120 140 L 120 380 L 230 380 L 230 340 L 160 340 L 160 140 Z" 
          fill="white" stroke="white" stroke-width="4" stroke-linejoin="bevel"/>
    
    <!-- Geometric bridge element -->
    <path d="M 210 260 L 240 240 L 270 260" 
          stroke="white" stroke-width="20" fill="none" stroke-linecap="square"/>
    
    <!-- B with sharp angles -->
    <path d="M 270 140 L 270 380 L 360 380 C 395 380 415 360 415 325 L 415 290 C 415 270 405 258 390 252 C 405 246 415 234 415 214 L 415 195 C 415 160 395 140 360 140 Z M 310 185 L 360 185 C 375 185 380 190 380 205 L 380 225 C 380 240 375 245 360 245 L 310 245 Z M 310 285 L 360 285 C 375 285 380 290 380 305 L 380 335 C 380 350 375 355 360 355 L 310 355 Z" 
          fill="white" stroke="white" stroke-width="4" stroke-linejoin="bevel"/>
  </g>
</svg>
