<svg width="512" height="512" viewBox="0 0 512 512" fill="none" xmlns="http://www.w3.org/2000/svg">
  <!-- Grownest Style Bridge - Exact Recreation -->
  <defs>
    <linearGradient id="grownestMint" x1="0%" y1="0%" x2="100%" y2="100%">
      <stop offset="0%" style="stop-color:#6ee7b7;stop-opacity:1" />
      <stop offset="100%" style="stop-color:#34d399;stop-opacity:1" />
    </linearGradient>
  </defs>
  
  <circle cx="256" cy="256" r="256" fill="url(#grownestMint)"/>
  
  <!-- Bridge structure matching Grownest design -->
  <g transform="translate(256, 280)">
    <!-- Top decorative dots -->
    <circle cx="-120" cy="-100" r="12" fill="white"/>
    <circle cx="-40" cy="-110" r="14" fill="white"/>
    <circle cx="40" cy="-110" r="14" fill="white"/>
    <circle cx="120" cy="-100" r="12" fill="white"/>
    
    <!-- Main bridge arch -->
    <path d="M -180 -60 Q -180 -80 -160 -80 L -80 -80 Q -60 -80 -60 -60 L -60 0 L -100 0 L -100 -40 Q -100 -50 -110 -50 L -130 -50 Q -140 -50 -140 -40 L -140 0 L -180 0 Z" 
          fill="white"/>
    
    <!-- Center arch -->
    <path d="M -40 -70 Q -40 -90 -20 -90 L 20 -90 Q 40 -90 40 -70 L 40 0 L 0 0 L 0 -50 Q 0 -60 -10 -60 L 10 -60 Q 0 -60 0 -50 L 0 0 L -40 0 Z" 
          fill="white"/>
    
    <!-- Right arch -->
    <path d="M 60 -60 Q 60 -80 80 -80 L 160 -80 Q 180 -80 180 -60 L 180 0 L 140 0 L 140 -40 Q 140 -50 130 -50 L 110 -50 Q 100 -50 100 -40 L 100 0 L 60 0 Z" 
          fill="white"/>
    
    <!-- Bridge deck -->
    <rect x="-180" y="-5" width="360" height="25" rx="5" fill="white"/>
  </g>
</svg>
