<svg width="512" height="512" viewBox="0 0 512 512" fill="none" xmlns="http://www.w3.org/2000/svg">
  <!-- Premium Option B: Modern Gradient LB with Depth -->
  <defs>
    <linearGradient id="premiumMintB" x1="0%" y1="0%" x2="100%" y2="100%">
      <stop offset="0%" style="stop-color:#5eead4;stop-opacity:1" />
      <stop offset="100%" style="stop-color:#2dd4bf;stop-opacity:1" />
    </linearGradient>
    <linearGradient id="letterGradient" x1="0%" y1="0%" x2="0%" y2="100%">
      <stop offset="0%" style="stop-color:#ffffff;stop-opacity:1" />
      <stop offset="100%" style="stop-color:#f0fdfa;stop-opacity:0.9" />
    </linearGradient>
    <filter id="depth">
      <feDropShadow dx="0" dy="8" stdDeviation="12" flood-color="#000000" flood-opacity="0.25"/>
    </filter>
  </defs>
  
  <circle cx="256" cy="256" r="256" fill="url(#premiumMintB)"/>
  
  <!-- Subtle background pattern -->
  <circle cx="256" cy="256" r="200" fill="white" opacity="0.05"/>
  <circle cx="256" cy="256" r="160" fill="white" opacity="0.05"/>
  
  <!-- Modern LB with gradient and depth -->
  <g filter="url(#depth)">
    <path d="M 130 150 L 130 370 L 220 370 L 220 330 L 170 330 L 170 150 Z" 
          fill="url(#letterGradient)" stroke="white" stroke-width="2"/>
    
    <path d="M 240 150 L 240 370 L 330 370 C 365 370 385 350 385 315 L 385 280 C 385 260 375 248 360 242 C 375 236 385 224 385 204 L 385 185 C 385 150 365 150 330 150 Z M 280 190 L 330 190 C 345 190 350 195 350 210 L 350 230 C 350 245 345 250 330 250 L 280 250 Z M 280 285 L 330 285 C 345 285 350 290 350 305 L 350 330 C 350 345 345 350 330 350 L 280 350 Z" 
          fill="url(#letterGradient)" stroke="white" stroke-width="2"/>
  </g>
</svg>
